<?xml version="1.0" encoding="UTF-8" standalone="no"?>
<!DOCTYPE svg PUBLIC "-//W3C//DTD SVG 1.1//EN" "http://www.w3.org/Graphics/SVG/1.1/DTD/svg11.dtd">
<svg width="456" height="456" viewBox="0 0 456 456" version="1.1" xmlns="http://www.w3.org/2000/svg" xmlns:xlink="http://www.w3.org/1999/xlink" xml:space="preserve" xmlns:serif="http://www.serif.com/" style="fill-rule:evenodd;clip-rule:evenodd;stroke-linejoin:round;stroke-miterlimit:2;">
	<path d="M50,10 A40,40 0 1,1 90,10 A40,40 0 1,1 50,10 Z" style="fill:#ffffff;fill-rule:nonzero;stroke-width:0.838376"/>
	<path d="M20,20 Q40,10 60,20 Q80,30 60,40 Q40,50 20,40 Q0,30 20,20 Z" style="fill:#ffffff;fill-rule:nonzero;stroke-width:0.838376"/>
	<path d="M30,10 L70,10 L70,90 L30,90 L30,10 Z" style="fill:#ffffff;fill-rule:nonzero;stroke-width:0.838376"/>
	<path d="M20,10 L20,90 L80,90 L80,60 L50,60 L50,40 L80,40 L80,10 L20,10 Z" style="fill:#ffffff;fill-rule:nonzero;stroke-width:0.838376"/>
	<path d="M0,0" style="fill:#ffffff;fill-rule:nonzero;stroke-width:0.838376"/>
	<path d="M20,20 Q40,10 60,20 Q80,30 60,40 Q40,50 20,40 Q0,30 20,20 Z" style="fill:#ffffff;fill-rule:nonzero;stroke-width:0.838376"/>
	<path d="M30,10 L30,80 Q30,90 40,90 L60,90 Q70,90 70,80 L70,10 L30,10 Z" style="fill:#ffffff;fill-rule:nonzero;stroke-width:0.838376"/>
	<path d="M50,10 L50,90 L50,10 Z" style="fill:#ffffff;fill-rule:nonzero;stroke-width:0.838376"/>
	<path d="M30,10 L70,10 L70,90 L30,90 L30,10 Z" style="fill:#ffffff;fill-rule:nonzero;stroke-width:0.838376"/>
	<path d="M20,10 L20,90 L80,90 L80,80 L30,80 L30,50 L80,50 L80,40 L30,40 L30,10 L80,10 L80,0 L20,0 Z" style="fill:#ffffff;fill-rule:nonzero;stroke-width:0.838376"/>
</svg>